<?xml version="1.0" encoding="UTF-8" standalone="no"?>
<svg width="300px" height="443px" viewBox="0 0 300 443" version="1.1" xmlns="http://www.w3.org/2000/svg" xmlns:xlink="http://www.w3.org/1999/xlink">
    <!-- Generator: Sketch Beta 3.7 (27835) - http://www.bohemiancoding.com/sketch -->
    <title>Group 2</title>
    <desc>Created with Sketch Beta.</desc>
    <defs></defs>
    <g id="Page-1" stroke="none" stroke-width="1" fill="none" fill-rule="evenodd" opacity="0.400000006">
        <g id="icon" transform="translate(-363.000000, -291.000000)" stroke-width="21" stroke="#9B9B9B" fill="#9B9B9B">
            <g id="Group-2" transform="translate(373.000000, 302.000000)">
                <g id="Group">
                    <path d="M200.906862,45.6602634 C212.277062,38.103671 215.368601,22.7604744 207.812009,11.3902746 C200.255417,0.0200747983 184.91222,-3.07146481 173.54202,4.48512758 L11.7434111,109.075615 C0.373211354,116.632207 -2.71832826,131.975404 4.83826414,143.345603 C12.3948565,154.715803 27.7380531,157.807343 39.1082529,150.25075 L200.906862,45.6602634 Z" id="Line"></path>
                    <path d="M173.54202,416.57778 C184.91222,424.134372 200.255417,421.042833 207.812009,409.672633 C215.368601,398.302433 212.277062,382.959237 200.906862,375.402644 L39.1082529,270.812157 C27.7380531,263.255565 12.3948565,266.347104 4.83826414,277.717304 C-2.71832826,289.087504 0.373211354,304.430701 11.7434111,311.987293 L173.54202,416.57778 Z" id="Line"></path>
                    <path d="M254.12449,235.251013 C267.776725,235.251013 278.844048,224.183689 278.844048,210.531454 C278.844048,196.879218 267.776725,185.811895 254.12449,185.811895 L106.232037,185.811895 C92.5798015,185.811895 81.512478,196.879218 81.512478,210.531454 C81.512478,224.183689 92.5798015,235.251013 106.232037,235.251013 L254.12449,235.251013 Z" id="Line"></path>
                </g>
            </g>
        </g>
    </g>
</svg>